<svg xmlns="http://www.w3.org/2000/svg" viewBox="-24 -10 690 98" role="img" aria-labelledby="title">
  <title id="title">sportsfacts</title>
  <g opacity=".26" fill="#00131d" stroke="#00131d" stroke-width="3" stroke-linejoin="miter" transform="translate(5 6)">
    <g transform="translate(0 0)"><path d="M0 0h50v10H0zM0 10h10v10H0zM0 20h10v10H0zM0 30h40v10H0zM40 40h10v10H40zM40 50h10v10H40zM0 60h40v10H0z"/></g>
    <g transform="translate(56 0)"><path d="M0 0h40v10H0zM0 10h10v10H0zM40 10h10v20H40zM0 20h10v10H0zM0 30h40v10H0zM0 40h10v30H0z"/></g>
    <g transform="translate(112 0)"><path d="M10 0h30v10H10zM0 10h10v50H0zM40 10h10v50H40zM10 60h30v10H10z"/></g>
    <g transform="translate(168 0)"><path d="M0 0h40v10H0zM0 10h10v60H0zM40 10h10v20H40zM10 30h30v10H10zM20 40h10v10H20zM30 50h10v10H30zM40 60h10v10H40z"/></g>
    <g transform="translate(224 0)"><path d="M0 0h50v10H0zM20 10h10v60H20z"/></g>
    <g transform="translate(280 0)"><path d="M0 0h50v10H0zM0 10h10v10H0zM0 20h10v10H0zM0 30h40v10H0zM40 40h10v10H40zM40 50h10v10H40zM0 60h40v10H0z"/></g>
    <g transform="translate(366 0)"><path d="M0 0h50v10H0zM0 10h10v60H0zM10 30h30v10H10z"/></g>
    <g transform="translate(422 0)"><path d="M10 0h30v10H10zM0 10h10v60H0zM40 10h10v60H40zM10 30h30v10H10z"/></g>
    <g transform="translate(478 0)"><path d="M10 0h40v10H10zM0 10h10v50H0zM10 60h40v10H10z"/></g>
    <g transform="translate(534 0)"><path d="M0 0h50v10H0zM20 10h10v60H20z"/></g>
    <g transform="translate(590 0)"><path d="M0 0h50v10H0zM0 10h10v10H0zM0 20h10v10H0zM0 30h40v10H0zM40 40h10v10H40zM40 50h10v10H40zM0 60h40v10H0z"/></g>
  </g>
  <g fill="#ffffff" stroke="#ffffff" stroke-width="3" stroke-linejoin="miter">
    <g transform="translate(0 0)"><path d="M0 0h50v10H0zM0 10h10v10H0zM0 20h10v10H0zM0 30h40v10H0zM40 40h10v10H40zM40 50h10v10H40zM0 60h40v10H0z"/></g>
    <g transform="translate(56 0)"><path d="M0 0h40v10H0zM0 10h10v10H0zM40 10h10v20H40zM0 20h10v10H0zM0 30h40v10H0zM0 40h10v30H0z"/></g>
    <g transform="translate(112 0)"><path d="M10 0h30v10H10zM0 10h10v50H0zM40 10h10v50H40zM10 60h30v10H10z"/></g>
    <g transform="translate(168 0)"><path d="M0 0h40v10H0zM0 10h10v60H0zM40 10h10v20H40zM10 30h30v10H10zM20 40h10v10H20zM30 50h10v10H30zM40 60h10v10H40z"/></g>
    <g transform="translate(224 0)"><path d="M0 0h50v10H0zM20 10h10v60H20z"/></g>
    <g transform="translate(280 0)"><path d="M0 0h50v10H0zM0 10h10v10H0zM0 20h10v10H0zM0 30h40v10H0zM40 40h10v10H40zM40 50h10v10H40zM0 60h40v10H0z"/></g>
  </g>
  <g fill="#73a8ef" stroke="#73a8ef" stroke-width="3" stroke-linejoin="miter">
    <g transform="translate(366 0)"><path d="M0 0h50v10H0zM0 10h10v60H0zM10 30h30v10H10z"/></g>
    <g transform="translate(422 0)"><path d="M10 0h30v10H10zM0 10h10v60H0zM40 10h10v60H40zM10 30h30v10H10z"/></g>
    <g transform="translate(478 0)"><path d="M10 0h40v10H10zM0 10h10v50H0zM10 60h40v10H10z"/></g>
    <g transform="translate(534 0)"><path d="M0 0h50v10H0zM20 10h10v60H20z"/></g>
    <g transform="translate(590 0)"><path d="M0 0h50v10H0zM0 10h10v10H0zM0 20h10v10H0zM0 30h40v10H0zM40 40h10v10H40zM40 50h10v10H40zM0 60h40v10H0z"/></g>
  </g>
</svg>
